# xmcd CD database file
#
# Track frame offsets:
#	150
#	922
#	20636
#	38624
#	62959
#	64063
#	82782
#	104727
#	126362
#	153220
#	154022
#	173211
#	202069
#	219705
#	220941
#	244580
#	248449
#
# Disc length: 3614 seconds
#
# Revision: 0
# Processed by: cddbd v1.5.1PL0 Copyright (c) Steve Scherf et al.
# Submitted via: CDex 1.51
#
DISCID=e10e1c11
DTITLE=Various Artist - Mark Hummel's Blue Harp Meltdown - Vol. 2 - East Meets West - (Disk 2)
DYEAR=2003
DGENRE=Blues
TTITLE0=Intro - Paul and Annie
TTITLE1=Even Good Women Have Bad Days - Paul and Annie
TTITLE2=Little Dog - Paul and Annie
TTITLE3=Annie's Rocker - Paul and Annie
TTITLE4=Intro - Johnny Dyer
TTITLE5=Everything Gonna Be Alright - Johnny Dyer
TTITLE6=Mojo Boogie - Johnny Dyer
TTITLE7=Long Distance Call - Johnny Dyer
TTITLE8=Blow Wind - Johnny Dyer
TTITLE9=Intro - Gary Primich
TTITLE10=Real Gone Lover - Gary Primich
TTITLE11=Can't Stand You When You're Drinking - Gary Primich
TTITLE12=Playgirl - Gary Primich
TTITLE13=Primich Song Intro - Gary Primich
TTITLE14=Ain't She Trouble - Gary Primich
TTITLE15=Goodbye Intro - Gary Primich
TTITLE16=Goodbye Little Girl - Gary Primich
EXTD=YEAR: 2003
EXTT0=
EXTT1=
EXTT2=
EXTT3=
EXTT4=
EXTT5=
EXTT6=
EXTT7=
EXTT8=
EXTT9=
EXTT10=
EXTT11=
EXTT12=
EXTT13=
EXTT14=
EXTT15=
EXTT16=
PLAYORDER=
